<svg xmlns="http://www.w3.org/2000/svg" xmlns:xlink="http://www.w3.org/1999/xlink" width="391" zoomAndPan="magnify" viewBox="0 0 293.25 99.749997" height="133" preserveAspectRatio="xMidYMid meet" version="1.0"><defs><g/><clipPath id="2787596441"><rect x="0" width="242" y="0" height="80"/></clipPath><clipPath id="c0c9d5c10a"><rect x="0" width="242" y="0" height="80"/></clipPath></defs><g transform="matrix(1, 0, 0, 1, 10, 10)"><g clip-path="url(#2787596441)"><g fill="#232323" fill-opacity="1"><g transform="translate(0.669969, 35.189488)"><g><path d="M 11.71875 0.59375 C 9.582031 0.59375 7.5 0.351562 5.46875 -0.125 C 3.445312 -0.601562 1.785156 -1.25 0.484375 -2.0625 L 3.28125 -8.40625 C 4.507812 -7.6875 5.882812 -7.113281 7.40625 -6.6875 C 8.925781 -6.257812 10.390625 -6.046875 11.796875 -6.046875 C 12.992188 -6.046875 13.851562 -6.160156 14.375 -6.390625 C 14.894531 -6.628906 15.15625 -6.984375 15.15625 -7.453125 C 15.15625 -7.984375 14.816406 -8.382812 14.140625 -8.65625 C 13.460938 -8.925781 12.347656 -9.222656 10.796875 -9.546875 C 8.804688 -9.960938 7.144531 -10.410156 5.8125 -10.890625 C 4.488281 -11.367188 3.335938 -12.15625 2.359375 -13.25 C 1.378906 -14.34375 0.890625 -15.820312 0.890625 -17.6875 C 0.890625 -19.3125 1.34375 -20.785156 2.25 -22.109375 C 3.15625 -23.441406 4.507812 -24.488281 6.3125 -25.25 C 8.125 -26.007812 10.320312 -26.390625 12.90625 -26.390625 C 14.664062 -26.390625 16.398438 -26.195312 18.109375 -25.8125 C 19.816406 -25.4375 21.320312 -24.878906 22.625 -24.140625 L 20.015625 -17.84375 C 17.484375 -19.113281 15.085938 -19.75 12.828125 -19.75 C 10.585938 -19.75 9.46875 -19.210938 9.46875 -18.140625 C 9.46875 -17.617188 9.800781 -17.226562 10.46875 -16.96875 C 11.132812 -16.71875 12.226562 -16.441406 13.75 -16.140625 C 15.71875 -15.773438 17.375 -15.351562 18.71875 -14.875 C 20.070312 -14.394531 21.242188 -13.613281 22.234375 -12.53125 C 23.234375 -11.445312 23.734375 -9.972656 23.734375 -8.109375 C 23.734375 -6.484375 23.28125 -5.015625 22.375 -3.703125 C 21.46875 -2.390625 20.109375 -1.34375 18.296875 -0.5625 C 16.492188 0.207031 14.300781 0.59375 11.71875 0.59375 Z M 11.71875 0.59375 "/></g></g></g><g fill="#232323" fill-opacity="1"><g transform="translate(24.879703, 35.189488)"><g><path d="M 2.09375 -25.796875 L 10.796875 -25.796875 L 10.796875 0 L 2.09375 0 Z M 2.09375 -25.796875 "/></g></g></g><g fill="#232323" fill-opacity="1"><g transform="translate(37.776816, 35.189488)"><g><path d="M 7.703125 -19.0625 L 0.140625 -19.0625 L 0.140625 -25.796875 L 23.953125 -25.796875 L 23.953125 -19.0625 L 16.40625 -19.0625 L 16.40625 0 L 7.703125 0 Z M 7.703125 -19.0625 "/></g></g></g><g fill="#232323" fill-opacity="1"><g transform="translate(61.876004, 35.189488)"><g><path d="M 23.546875 -6.5625 L 23.546875 0 L 2.09375 0 L 2.09375 -25.796875 L 23.078125 -25.796875 L 23.078125 -19.234375 L 10.65625 -19.234375 L 10.65625 -16.21875 L 21.5625 -16.21875 L 21.5625 -9.953125 L 10.65625 -9.953125 L 10.65625 -6.5625 Z M 23.546875 -6.5625 "/></g></g></g><g fill="#232323" fill-opacity="1"><g transform="translate(86.306778, 35.189488)"><g><path d="M 29.671875 -25.796875 L 18.765625 0 L 10.203125 0 L -0.703125 -25.796875 L 8.65625 -25.796875 L 14.8125 -10.71875 L 21.125 -25.796875 Z M 29.671875 -25.796875 "/></g></g></g><g fill="#232323" fill-opacity="1"><g transform="translate(114.34866, 35.189488)"><g><path d="M 15.625 0.59375 C 12.851562 0.59375 10.359375 0.015625 8.140625 -1.140625 C 5.929688 -2.296875 4.195312 -3.898438 2.9375 -5.953125 C 1.6875 -8.003906 1.0625 -10.320312 1.0625 -12.90625 C 1.0625 -15.476562 1.6875 -17.789062 2.9375 -19.84375 C 4.195312 -21.894531 5.929688 -23.5 8.140625 -24.65625 C 10.359375 -25.8125 12.851562 -26.390625 15.625 -26.390625 C 18.40625 -26.390625 20.898438 -25.8125 23.109375 -24.65625 C 25.316406 -23.5 27.046875 -21.894531 28.296875 -19.84375 C 29.554688 -17.789062 30.1875 -15.476562 30.1875 -12.90625 C 30.1875 -10.320312 29.554688 -8.003906 28.296875 -5.953125 C 27.046875 -3.898438 25.316406 -2.296875 23.109375 -1.140625 C 20.898438 0.015625 18.40625 0.59375 15.625 0.59375 Z M 15.625 -6.453125 C 16.707031 -6.453125 17.679688 -6.710938 18.546875 -7.234375 C 19.421875 -7.765625 20.117188 -8.515625 20.640625 -9.484375 C 21.160156 -10.460938 21.421875 -11.601562 21.421875 -12.90625 C 21.421875 -14.207031 21.160156 -15.34375 20.640625 -16.3125 C 20.117188 -17.28125 19.421875 -18.023438 18.546875 -18.546875 C 17.679688 -19.078125 16.707031 -19.34375 15.625 -19.34375 C 14.539062 -19.34375 13.5625 -19.078125 12.6875 -18.546875 C 11.820312 -18.023438 11.128906 -17.28125 10.609375 -16.3125 C 10.097656 -15.34375 9.84375 -14.207031 9.84375 -12.90625 C 9.84375 -11.601562 10.097656 -10.460938 10.609375 -9.484375 C 11.128906 -8.515625 11.820312 -7.765625 12.6875 -7.234375 C 13.5625 -6.710938 14.539062 -6.453125 15.625 -6.453125 Z M 15.625 -6.453125 "/></g></g></g><g fill="#232323" fill-opacity="1"><g transform="translate(145.596535, 35.189488)"><g><path d="M 2.09375 -25.796875 L 10.796875 -25.796875 L 10.796875 -6.75 L 22.453125 -6.75 L 22.453125 0 L 2.09375 0 Z M 2.09375 -25.796875 "/></g></g></g><g fill="#232323" fill-opacity="1"><g transform="translate(165.936785, 35.189488)"><g><path d="M 7.703125 -19.0625 L 0.140625 -19.0625 L 0.140625 -25.796875 L 23.953125 -25.796875 L 23.953125 -19.0625 L 16.40625 -19.0625 L 16.40625 0 L 7.703125 0 Z M 7.703125 -19.0625 "/></g></g></g><g fill="#232323" fill-opacity="1"><g transform="translate(0.669969, 69.650896)"><g><path d="M 25.140625 0 L 25.0625 -11.765625 L 19.46875 -2.328125 L 15.625 -2.328125 L 10.03125 -11.359375 L 10.03125 0 L 2.09375 0 L 2.09375 -25.796875 L 9.25 -25.796875 L 17.65625 -12.046875 L 25.84375 -25.796875 L 32.984375 -25.796875 L 33.0625 0 Z M 25.140625 0 "/></g></g></g><g fill="#232323" fill-opacity="1"><g transform="translate(35.823829, 69.650896)"><g><path d="M 19.6875 -4.5 L 9.875 -4.5 L 8.140625 0 L -0.703125 0 L 10.578125 -25.796875 L 19.125 -25.796875 L 30.40625 0 L 21.421875 0 Z M 17.28125 -10.765625 L 14.78125 -17.25 L 12.28125 -10.765625 Z M 17.28125 -10.765625 "/></g></g></g><g fill="#232323" fill-opacity="1"><g transform="translate(65.52405, 69.650896)"><g><path d="M 13.15625 -6.484375 L 10.796875 -6.484375 L 10.796875 0 L 2.09375 0 L 2.09375 -25.796875 L 14.515625 -25.796875 C 16.898438 -25.796875 18.976562 -25.398438 20.75 -24.609375 C 22.519531 -23.828125 23.882812 -22.695312 24.84375 -21.21875 C 25.800781 -19.75 26.28125 -18.035156 26.28125 -16.078125 C 26.28125 -14.234375 25.863281 -12.617188 25.03125 -11.234375 C 24.195312 -9.859375 22.992188 -8.769531 21.421875 -7.96875 L 26.828125 0 L 17.546875 0 Z M 17.515625 -16.078125 C 17.515625 -17.035156 17.21875 -17.773438 16.625 -18.296875 C 16.03125 -18.828125 15.144531 -19.09375 13.96875 -19.09375 L 10.796875 -19.09375 L 10.796875 -13.046875 L 13.96875 -13.046875 C 15.144531 -13.046875 16.03125 -13.3125 16.625 -13.84375 C 17.21875 -14.375 17.515625 -15.117188 17.515625 -16.078125 Z M 17.515625 -16.078125 "/></g></g></g><g fill="#232323" fill-opacity="1"><g transform="translate(92.976485, 69.650896)"><g><path d="M 12.609375 -8.546875 L 10.65625 -6.375 L 10.65625 0 L 2.09375 0 L 2.09375 -25.796875 L 10.65625 -25.796875 L 10.65625 -16.4375 L 19.125 -25.796875 L 28.609375 -25.796875 L 18.28125 -14.453125 L 29.125 0 L 19.0625 0 Z M 12.609375 -8.546875 "/></g></g></g><g fill="#232323" fill-opacity="1"><g transform="translate(121.1659, 69.650896)"><g><path d="M 23.546875 -6.5625 L 23.546875 0 L 2.09375 0 L 2.09375 -25.796875 L 23.078125 -25.796875 L 23.078125 -19.234375 L 10.65625 -19.234375 L 10.65625 -16.21875 L 21.5625 -16.21875 L 21.5625 -9.953125 L 10.65625 -9.953125 L 10.65625 -6.5625 Z M 23.546875 -6.5625 "/></g></g></g><g fill="#232323" fill-opacity="1"><g transform="translate(145.965218, 69.650896)"><g><path d="M 7.703125 -19.0625 L 0.140625 -19.0625 L 0.140625 -25.796875 L 23.953125 -25.796875 L 23.953125 -19.0625 L 16.40625 -19.0625 L 16.40625 0 L 7.703125 0 Z M 7.703125 -19.0625 "/></g></g></g><g fill="#232323" fill-opacity="1"><g transform="translate(170.064416, 69.650896)"><g><path d="M 2.09375 -25.796875 L 10.796875 -25.796875 L 10.796875 0 L 2.09375 0 Z M 2.09375 -25.796875 "/></g></g></g><g fill="#232323" fill-opacity="1"><g transform="translate(182.961529, 69.650896)"><g><path d="M 27.53125 -25.796875 L 27.53125 0 L 20.390625 0 L 10.578125 -11.71875 L 10.578125 0 L 2.09375 0 L 2.09375 -25.796875 L 9.25 -25.796875 L 19.0625 -14.078125 L 19.0625 -25.796875 Z M 27.53125 -25.796875 "/></g></g></g><g fill="#232323" fill-opacity="1"><g transform="translate(212.588033, 69.650896)"><g><path d="M 19.171875 -13.59375 L 26.71875 -13.59375 L 26.71875 -2.6875 C 25.195312 -1.632812 23.425781 -0.820312 21.40625 -0.25 C 19.394531 0.3125 17.421875 0.59375 15.484375 0.59375 C 12.734375 0.59375 10.265625 0.0195312 8.078125 -1.125 C 5.890625 -2.269531 4.171875 -3.867188 2.921875 -5.921875 C 1.679688 -7.972656 1.0625 -10.300781 1.0625 -12.90625 C 1.0625 -15.507812 1.679688 -17.835938 2.921875 -19.890625 C 4.171875 -21.941406 5.90625 -23.535156 8.125 -24.671875 C 10.351562 -25.816406 12.867188 -26.390625 15.671875 -26.390625 C 18.203125 -26.390625 20.46875 -25.960938 22.46875 -25.109375 C 24.46875 -24.265625 26.128906 -23.035156 27.453125 -21.421875 L 21.890625 -16.515625 C 20.273438 -18.398438 18.347656 -19.34375 16.109375 -19.34375 C 14.191406 -19.34375 12.664062 -18.765625 11.53125 -17.609375 C 10.40625 -16.460938 9.84375 -14.894531 9.84375 -12.90625 C 9.84375 -10.957031 10.398438 -9.394531 11.515625 -8.21875 C 12.640625 -7.039062 14.132812 -6.453125 16 -6.453125 C 17.101562 -6.453125 18.160156 -6.660156 19.171875 -7.078125 Z M 19.171875 -13.59375 "/></g></g></g></g></g><g transform="matrix(1, 0, 0, 1, 10, 10)"><g clip-path="url(#c0c9d5c10a)"><g fill="#232323" fill-opacity="1"><g transform="translate(0.669969, 35.189488)"><g><path d="M 11.71875 0.59375 C 9.582031 0.59375 7.5 0.351562 5.46875 -0.125 C 3.445312 -0.601562 1.785156 -1.25 0.484375 -2.0625 L 3.28125 -8.40625 C 4.507812 -7.6875 5.882812 -7.113281 7.40625 -6.6875 C 8.925781 -6.257812 10.390625 -6.046875 11.796875 -6.046875 C 12.992188 -6.046875 13.851562 -6.160156 14.375 -6.390625 C 14.894531 -6.628906 15.15625 -6.984375 15.15625 -7.453125 C 15.15625 -7.984375 14.816406 -8.382812 14.140625 -8.65625 C 13.460938 -8.925781 12.347656 -9.222656 10.796875 -9.546875 C 8.804688 -9.960938 7.144531 -10.410156 5.8125 -10.890625 C 4.488281 -11.367188 3.335938 -12.15625 2.359375 -13.25 C 1.378906 -14.34375 0.890625 -15.820312 0.890625 -17.6875 C 0.890625 -19.3125 1.34375 -20.785156 2.25 -22.109375 C 3.15625 -23.441406 4.507812 -24.488281 6.3125 -25.25 C 8.125 -26.007812 10.320312 -26.390625 12.90625 -26.390625 C 14.664062 -26.390625 16.398438 -26.195312 18.109375 -25.8125 C 19.816406 -25.4375 21.320312 -24.878906 22.625 -24.140625 L 20.015625 -17.84375 C 17.484375 -19.113281 15.085938 -19.75 12.828125 -19.75 C 10.585938 -19.75 9.46875 -19.210938 9.46875 -18.140625 C 9.46875 -17.617188 9.800781 -17.226562 10.46875 -16.96875 C 11.132812 -16.71875 12.226562 -16.441406 13.75 -16.140625 C 15.71875 -15.773438 17.375 -15.351562 18.71875 -14.875 C 20.070312 -14.394531 21.242188 -13.613281 22.234375 -12.53125 C 23.234375 -11.445312 23.734375 -9.972656 23.734375 -8.109375 C 23.734375 -6.484375 23.28125 -5.015625 22.375 -3.703125 C 21.46875 -2.390625 20.109375 -1.34375 18.296875 -0.5625 C 16.492188 0.207031 14.300781 0.59375 11.71875 0.59375 Z M 11.71875 0.59375 "/></g></g></g><g fill="#232323" fill-opacity="1"><g transform="translate(24.879703, 35.189488)"><g><path d="M 2.09375 -25.796875 L 10.796875 -25.796875 L 10.796875 0 L 2.09375 0 Z M 2.09375 -25.796875 "/></g></g></g><g fill="#232323" fill-opacity="1"><g transform="translate(37.776816, 35.189488)"><g><path d="M 7.703125 -19.0625 L 0.140625 -19.0625 L 0.140625 -25.796875 L 23.953125 -25.796875 L 23.953125 -19.0625 L 16.40625 -19.0625 L 16.40625 0 L 7.703125 0 Z M 7.703125 -19.0625 "/></g></g></g><g fill="#232323" fill-opacity="1"><g transform="translate(61.876004, 35.189488)"><g><path d="M 23.546875 -6.5625 L 23.546875 0 L 2.09375 0 L 2.09375 -25.796875 L 23.078125 -25.796875 L 23.078125 -19.234375 L 10.65625 -19.234375 L 10.65625 -16.21875 L 21.5625 -16.21875 L 21.5625 -9.953125 L 10.65625 -9.953125 L 10.65625 -6.5625 Z M 23.546875 -6.5625 "/></g></g></g><g fill="#232323" fill-opacity="1"><g transform="translate(86.306778, 35.189488)"><g><path d="M 29.671875 -25.796875 L 18.765625 0 L 10.203125 0 L -0.703125 -25.796875 L 8.65625 -25.796875 L 14.8125 -10.71875 L 21.125 -25.796875 Z M 29.671875 -25.796875 "/></g></g></g><g fill="#232323" fill-opacity="1"><g transform="translate(114.34866, 35.189488)"><g><path d="M 15.625 0.59375 C 12.851562 0.59375 10.359375 0.015625 8.140625 -1.140625 C 5.929688 -2.296875 4.195312 -3.898438 2.9375 -5.953125 C 1.6875 -8.003906 1.0625 -10.320312 1.0625 -12.90625 C 1.0625 -15.476562 1.6875 -17.789062 2.9375 -19.84375 C 4.195312 -21.894531 5.929688 -23.5 8.140625 -24.65625 C 10.359375 -25.8125 12.851562 -26.390625 15.625 -26.390625 C 18.40625 -26.390625 20.898438 -25.8125 23.109375 -24.65625 C 25.316406 -23.5 27.046875 -21.894531 28.296875 -19.84375 C 29.554688 -17.789062 30.1875 -15.476562 30.1875 -12.90625 C 30.1875 -10.320312 29.554688 -8.003906 28.296875 -5.953125 C 27.046875 -3.898438 25.316406 -2.296875 23.109375 -1.140625 C 20.898438 0.015625 18.40625 0.59375 15.625 0.59375 Z M 15.625 -6.453125 C 16.707031 -6.453125 17.679688 -6.710938 18.546875 -7.234375 C 19.421875 -7.765625 20.117188 -8.515625 20.640625 -9.484375 C 21.160156 -10.460938 21.421875 -11.601562 21.421875 -12.90625 C 21.421875 -14.207031 21.160156 -15.34375 20.640625 -16.3125 C 20.117188 -17.28125 19.421875 -18.023438 18.546875 -18.546875 C 17.679688 -19.078125 16.707031 -19.34375 15.625 -19.34375 C 14.539062 -19.34375 13.5625 -19.078125 12.6875 -18.546875 C 11.820312 -18.023438 11.128906 -17.28125 10.609375 -16.3125 C 10.097656 -15.34375 9.84375 -14.207031 9.84375 -12.90625 C 9.84375 -11.601562 10.097656 -10.460938 10.609375 -9.484375 C 11.128906 -8.515625 11.820312 -7.765625 12.6875 -7.234375 C 13.5625 -6.710938 14.539062 -6.453125 15.625 -6.453125 Z M 15.625 -6.453125 "/></g></g></g><g fill="#232323" fill-opacity="1"><g transform="translate(145.596535, 35.189488)"><g><path d="M 2.09375 -25.796875 L 10.796875 -25.796875 L 10.796875 -6.75 L 22.453125 -6.75 L 22.453125 0 L 2.09375 0 Z M 2.09375 -25.796875 "/></g></g></g><g fill="#232323" fill-opacity="1"><g transform="translate(165.936785, 35.189488)"><g><path d="M 7.703125 -19.0625 L 0.140625 -19.0625 L 0.140625 -25.796875 L 23.953125 -25.796875 L 23.953125 -19.0625 L 16.40625 -19.0625 L 16.40625 0 L 7.703125 0 Z M 7.703125 -19.0625 "/></g></g></g><g fill="#232323" fill-opacity="1"><g transform="translate(0.669969, 69.650896)"><g><path d="M 25.140625 0 L 25.0625 -11.765625 L 19.46875 -2.328125 L 15.625 -2.328125 L 10.03125 -11.359375 L 10.03125 0 L 2.09375 0 L 2.09375 -25.796875 L 9.25 -25.796875 L 17.65625 -12.046875 L 25.84375 -25.796875 L 32.984375 -25.796875 L 33.0625 0 Z M 25.140625 0 "/></g></g></g><g fill="#232323" fill-opacity="1"><g transform="translate(35.823829, 69.650896)"><g><path d="M 19.6875 -4.5 L 9.875 -4.5 L 8.140625 0 L -0.703125 0 L 10.578125 -25.796875 L 19.125 -25.796875 L 30.40625 0 L 21.421875 0 Z M 17.28125 -10.765625 L 14.78125 -17.25 L 12.28125 -10.765625 Z M 17.28125 -10.765625 "/></g></g></g><g fill="#232323" fill-opacity="1"><g transform="translate(65.52405, 69.650896)"><g><path d="M 13.15625 -6.484375 L 10.796875 -6.484375 L 10.796875 0 L 2.09375 0 L 2.09375 -25.796875 L 14.515625 -25.796875 C 16.898438 -25.796875 18.976562 -25.398438 20.75 -24.609375 C 22.519531 -23.828125 23.882812 -22.695312 24.84375 -21.21875 C 25.800781 -19.75 26.28125 -18.035156 26.28125 -16.078125 C 26.28125 -14.234375 25.863281 -12.617188 25.03125 -11.234375 C 24.195312 -9.859375 22.992188 -8.769531 21.421875 -7.96875 L 26.828125 0 L 17.546875 0 Z M 17.515625 -16.078125 C 17.515625 -17.035156 17.21875 -17.773438 16.625 -18.296875 C 16.03125 -18.828125 15.144531 -19.09375 13.96875 -19.09375 L 10.796875 -19.09375 L 10.796875 -13.046875 L 13.96875 -13.046875 C 15.144531 -13.046875 16.03125 -13.3125 16.625 -13.84375 C 17.21875 -14.375 17.515625 -15.117188 17.515625 -16.078125 Z M 17.515625 -16.078125 "/></g></g></g><g fill="#232323" fill-opacity="1"><g transform="translate(92.976485, 69.650896)"><g><path d="M 12.609375 -8.546875 L 10.65625 -6.375 L 10.65625 0 L 2.09375 0 L 2.09375 -25.796875 L 10.65625 -25.796875 L 10.65625 -16.4375 L 19.125 -25.796875 L 28.609375 -25.796875 L 18.28125 -14.453125 L 29.125 0 L 19.0625 0 Z M 12.609375 -8.546875 "/></g></g></g><g fill="#232323" fill-opacity="1"><g transform="translate(121.1659, 69.650896)"><g><path d="M 23.546875 -6.5625 L 23.546875 0 L 2.09375 0 L 2.09375 -25.796875 L 23.078125 -25.796875 L 23.078125 -19.234375 L 10.65625 -19.234375 L 10.65625 -16.21875 L 21.5625 -16.21875 L 21.5625 -9.953125 L 10.65625 -9.953125 L 10.65625 -6.5625 Z M 23.546875 -6.5625 "/></g></g></g><g fill="#232323" fill-opacity="1"><g transform="translate(145.965218, 69.650896)"><g><path d="M 7.703125 -19.0625 L 0.140625 -19.0625 L 0.140625 -25.796875 L 23.953125 -25.796875 L 23.953125 -19.0625 L 16.40625 -19.0625 L 16.40625 0 L 7.703125 0 Z M 7.703125 -19.0625 "/></g></g></g><g fill="#232323" fill-opacity="1"><g transform="translate(170.064416, 69.650896)"><g><path d="M 2.09375 -25.796875 L 10.796875 -25.796875 L 10.796875 0 L 2.09375 0 Z M 2.09375 -25.796875 "/></g></g></g><g fill="#232323" fill-opacity="1"><g transform="translate(182.961529, 69.650896)"><g><path d="M 27.53125 -25.796875 L 27.53125 0 L 20.390625 0 L 10.578125 -11.71875 L 10.578125 0 L 2.09375 0 L 2.09375 -25.796875 L 9.25 -25.796875 L 19.0625 -14.078125 L 19.0625 -25.796875 Z M 27.53125 -25.796875 "/></g></g></g><g fill="#232323" fill-opacity="1"><g transform="translate(212.588033, 69.650896)"><g><path d="M 19.171875 -13.59375 L 26.71875 -13.59375 L 26.71875 -2.6875 C 25.195312 -1.632812 23.425781 -0.820312 21.40625 -0.25 C 19.394531 0.3125 17.421875 0.59375 15.484375 0.59375 C 12.734375 0.59375 10.265625 0.0195312 8.078125 -1.125 C 5.890625 -2.269531 4.171875 -3.867188 2.921875 -5.921875 C 1.679688 -7.972656 1.0625 -10.300781 1.0625 -12.90625 C 1.0625 -15.507812 1.679688 -17.835938 2.921875 -19.890625 C 4.171875 -21.941406 5.90625 -23.535156 8.125 -24.671875 C 10.351562 -25.816406 12.867188 -26.390625 15.671875 -26.390625 C 18.203125 -26.390625 20.46875 -25.960938 22.46875 -25.109375 C 24.46875 -24.265625 26.128906 -23.035156 27.453125 -21.421875 L 21.890625 -16.515625 C 20.273438 -18.398438 18.347656 -19.34375 16.109375 -19.34375 C 14.191406 -19.34375 12.664062 -18.765625 11.53125 -17.609375 C 10.40625 -16.460938 9.84375 -14.894531 9.84375 -12.90625 C 9.84375 -10.957031 10.398438 -9.394531 11.515625 -8.21875 C 12.640625 -7.039062 14.132812 -6.453125 16 -6.453125 C 17.101562 -6.453125 18.160156 -6.660156 19.171875 -7.078125 Z M 19.171875 -13.59375 "/></g></g></g></g></g></svg>