<svg xmlns="http://www.w3.org/2000/svg" viewBox="-15 -15 230 230"><polygon points="100.0,-13.0 110.6,5.6 125.1,-10.2 131.4,10.3 149.0,-1.8 150.5,19.6 170.5,11.7 167.2,32.8 188.3,29.5 180.4,49.5 201.8,51.0 189.7,68.6 210.2,74.9 194.4,89.4 213.0,100.0 194.4,110.6 210.2,125.1 189.7,131.4 201.8,149.0 180.4,150.5 188.3,170.5 167.2,167.2 170.5,188.3 150.5,180.4 149.0,201.8 131.4,189.7 125.1,210.2 110.6,194.4 100.0,213.0 89.4,194.4 74.9,210.2 68.6,189.7 51.0,201.8 49.5,180.4 29.5,188.3 32.8,167.2 11.7,170.5 19.6,150.5 -1.8,149.0 10.3,131.4 -10.2,125.1 5.6,110.6 -13.0,100.0 5.6,89.4 -10.2,74.9 10.3,68.6 -1.8,51.0 19.6,49.5 11.7,29.5 32.8,32.8 29.5,11.7 49.5,19.6 51.0,-1.8 68.6,10.3 74.9,-10.2 89.4,5.6" fill="#f7f1e4"/><polygon points="100.0,0.0 109.2,18.5 122.3,2.5 127.1,22.6 143.4,9.9 143.6,30.6 162.3,21.8 158.0,42.0 178.2,37.7 169.4,56.4 190.1,56.6 177.4,72.9 197.5,77.7 181.5,90.8 200.0,100.0 181.5,109.2 197.5,122.3 177.4,127.1 190.1,143.4 169.4,143.6 178.2,162.3 158.0,158.0 162.3,178.2 143.6,169.4 143.4,190.1 127.1,177.4 122.3,197.5 109.2,181.5 100.0,200.0 90.8,181.5 77.7,197.5 72.9,177.4 56.6,190.1 56.4,169.4 37.7,178.2 42.0,158.0 21.8,162.3 30.6,143.6 9.9,143.4 22.6,127.1 2.5,122.3 18.5,109.2 0.0,100.0 18.5,90.8 2.5,77.7 22.6,72.9 9.9,56.6 30.6,56.4 21.8,37.7 42.0,42.0 37.7,21.8 56.4,30.6 56.6,9.9 72.9,22.6 77.7,2.5 90.8,18.5" fill="#4884ea" stroke="#141414" stroke-width="3" stroke-linejoin="miter" stroke-miterlimit="4"/></svg>