<svg xmlns="http://www.w3.org/2000/svg" width="1440" height="52" viewBox="0 0 1440 52" preserveAspectRatio="none"><path d="M0 0 L1440 0 L1440 14.3 L1435.5 14.3 L1424.1 16.5 L1412.1 21.2 L1402.5 22.1 L1390.0 24.9 L1382.2 28.8 L1374.5 30.0 L1366.8 33.4 L1358.7 34.7 L1351.6 35.0 L1343.4 31.8 L1332.1 32.8 L1320.2 35.4 L1314.7 31.2 L1306.8 29.7 L1295.6 23.2 L1285.2 17.8 L1277.0 15.5 L1268.1 16.8 L1258.4 19.1 L1250.4 18.4 L1237.9 19.1 L1231.5 18.1 L1223.4 14.5 L1214.3 18.3 L1207.0 23.5 L1196.9 24.6 L1188.3 26.7 L1177.7 24.6 L1165.2 20.8 L1157.6 22.0 L1150.3 20.9 L1141.2 16.6 L1131.3 15.6 L1124.7 18.1 L1112.6 16.8 L1101.5 20.4 L1092.6 21.0 L1083.5 22.0 L1076.1 17.4 L1066.2 20.8 L1055.9 18.2 L1047.3 23.2 L1039.4 14.2 L1029.9 15.5 L1022.9 18.3 L1015.2 15.6 L1005.2 16.6 L997.2 19.4 L990.0 16.1 L980.2 16.7 L974.6 16.7 L966.9 21.4 L954.4 22.3 L945.0 17.4 L934.7 16.1 L928.8 18.9 L922.7 21.0 L917.3 26.7 L908.1 27.6 L900.9 26.6 L892.2 29.0 L881.2 33.4 L874.7 39.2 L865.8 43.8 L859.0 42.9 L848.8 44.9 L840.4 43.4 L830.5 45.0 L823.1 40.6 L811.9 41.8 L806.0 36.1 L800.3 42.6 L790.5 45.9 L784.5 40.4 L776.1 45.9 L766.2 44.6 L754.3 42.2 L748.4 45.7 L739.5 46.8 L729.1 44.7 L721.6 48.3 L711.3 44.1 L702.5 45.7 L694.4 45.9 L687.9 44.0 L680.3 45.1 L671.2 48.5 L664.0 42.0 L655.0 38.6 L644.4 36.8 L637.7 30.5 L625.9 27.6 L616.7 34.3 L604.2 35.4 L597.1 38.2 L588.5 39.4 L580.4 34.7 L574.0 31.4 L566.2 32.1 L557.3 32.2 L546.6 34.2 L539.5 31.3 L529.1 27.5 L523.5 29.5 L513.5 28.4 L504.0 28.6 L494.2 28.5 L483.4 28.5 L474.5 25.3 L467.1 25.8 L456.4 23.5 L445.9 26.0 L438.6 28.3 L432.9 27.5 L423.3 25.3 L415.5 29.0 L407.1 32.5 L400.8 34.3 L394.3 39.3 L387.0 41.7 L375.4 39.5 L365.6 37.1 L359.7 41.0 L347.2 43.2 L340.4 44.8 L330.2 48.3 L318.9 41.6 L311.0 45.5 L301.3 45.1 L291.0 45.9 L284.1 42.3 L276.0 44.9 L265.5 42.1 L254.9 38.6 L243.0 38.9 L236.7 36.6 L231.3 27.2 L222.1 28.2 L215.5 28.6 L209.2 29.0 L196.9 27.8 L184.6 30.2 L178.4 28.9 L168.6 22.3 L159.0 22.7 L147.5 20.8 L138.3 19.9 L127.2 18.0 L116.9 23.6 L105.3 17.8 L93.5 18.8 L81.4 14.2 L73.2 21.5 L63.5 22.6 L54.5 18.6 L43.1 24.3 L34.6 26.7 L23.1 24.0 L17.5 25.4 L6.4 26.9 L0 27.4 Z" fill="rgba(20,16,8,0.16)"/><path d="M0 0 L1440 0 L1440 11.0 L1435.5 11.0 L1424.1 13.2 L1412.1 17.9 L1402.5 18.8 L1390.0 21.6 L1382.2 25.5 L1374.5 26.7 L1366.8 30.1 L1358.7 31.4 L1351.6 31.7 L1343.4 28.5 L1332.1 29.5 L1320.2 32.1 L1314.7 27.9 L1306.8 26.4 L1295.6 19.9 L1285.2 14.5 L1277.0 12.2 L1268.1 13.5 L1258.4 15.8 L1250.4 15.1 L1237.9 15.8 L1231.5 14.8 L1223.4 11.2 L1214.3 15.0 L1207.0 20.2 L1196.9 21.3 L1188.3 23.4 L1177.7 21.3 L1165.2 17.5 L1157.6 18.7 L1150.3 17.6 L1141.2 13.3 L1131.3 12.3 L1124.7 14.8 L1112.6 13.5 L1101.5 17.1 L1092.6 17.7 L1083.5 18.7 L1076.1 14.1 L1066.2 17.5 L1055.9 14.9 L1047.3 19.9 L1039.4 10.9 L1029.9 12.2 L1022.9 15.0 L1015.2 12.3 L1005.2 13.3 L997.2 16.1 L990.0 12.8 L980.2 13.4 L974.6 13.4 L966.9 18.1 L954.4 19.0 L945.0 14.1 L934.7 12.8 L928.8 15.6 L922.7 17.7 L917.3 23.4 L908.1 24.3 L900.9 23.3 L892.2 25.7 L881.2 30.1 L874.7 35.9 L865.8 40.5 L859.0 39.6 L848.8 41.6 L840.4 40.1 L830.5 41.7 L823.1 37.3 L811.9 38.5 L806.0 32.8 L800.3 39.3 L790.5 42.6 L784.5 37.1 L776.1 42.6 L766.2 41.3 L754.3 38.9 L748.4 42.4 L739.5 43.5 L729.1 41.4 L721.6 45.0 L711.3 40.8 L702.5 42.4 L694.4 42.6 L687.9 40.7 L680.3 41.8 L671.2 45.2 L664.0 38.7 L655.0 35.3 L644.4 33.5 L637.7 27.2 L625.9 24.3 L616.7 31.0 L604.2 32.1 L597.1 34.9 L588.5 36.1 L580.4 31.4 L574.0 28.1 L566.2 28.8 L557.3 28.9 L546.6 30.9 L539.5 28.0 L529.1 24.2 L523.5 26.2 L513.5 25.1 L504.0 25.3 L494.2 25.2 L483.4 25.2 L474.5 22.0 L467.1 22.5 L456.4 20.2 L445.9 22.7 L438.6 25.0 L432.9 24.2 L423.3 22.0 L415.5 25.7 L407.1 29.2 L400.8 31.0 L394.3 36.0 L387.0 38.4 L375.4 36.2 L365.6 33.8 L359.7 37.7 L347.2 39.9 L340.4 41.5 L330.2 45.0 L318.9 38.3 L311.0 42.2 L301.3 41.8 L291.0 42.6 L284.1 39.0 L276.0 41.6 L265.5 38.8 L254.9 35.3 L243.0 35.6 L236.7 33.3 L231.3 23.9 L222.1 24.9 L215.5 25.3 L209.2 25.7 L196.9 24.5 L184.6 26.9 L178.4 25.6 L168.6 19.0 L159.0 19.4 L147.5 17.5 L138.3 16.6 L127.2 14.7 L116.9 20.3 L105.3 14.5 L93.5 15.5 L81.4 10.9 L73.2 18.2 L63.5 19.3 L54.5 15.3 L43.1 21.0 L34.6 23.4 L23.1 20.7 L17.5 22.1 L6.4 23.6 L0 24.1 Z" fill="#fffdf6"/><path d="M0 0 L1440 0 L1440 7.8 L1435.5 7.8 L1424.1 10.0 L1412.1 14.7 L1402.5 15.6 L1390.0 18.4 L1382.2 22.3 L1374.5 23.5 L1366.8 26.9 L1358.7 28.2 L1351.6 28.5 L1343.4 25.3 L1332.1 26.3 L1320.2 28.9 L1314.7 24.7 L1306.8 23.2 L1295.6 16.7 L1285.2 11.3 L1277.0 9.0 L1268.1 10.3 L1258.4 12.6 L1250.4 11.9 L1237.9 12.6 L1231.5 11.6 L1223.4 8.0 L1214.3 11.8 L1207.0 17.0 L1196.9 18.1 L1188.3 20.2 L1177.7 18.1 L1165.2 14.3 L1157.6 15.5 L1150.3 14.4 L1141.2 10.1 L1131.3 9.1 L1124.7 11.6 L1112.6 10.3 L1101.5 13.9 L1092.6 14.5 L1083.5 15.5 L1076.1 10.9 L1066.2 14.3 L1055.9 11.7 L1047.3 16.7 L1039.4 7.7 L1029.9 9.0 L1022.9 11.8 L1015.2 9.1 L1005.2 10.1 L997.2 12.9 L990.0 9.6 L980.2 10.2 L974.6 10.2 L966.9 14.9 L954.4 15.8 L945.0 10.9 L934.7 9.6 L928.8 12.4 L922.7 14.5 L917.3 20.2 L908.1 21.1 L900.9 20.1 L892.2 22.5 L881.2 26.9 L874.7 32.7 L865.8 37.3 L859.0 36.4 L848.8 38.4 L840.4 36.9 L830.5 38.5 L823.1 34.1 L811.9 35.3 L806.0 29.6 L800.3 36.1 L790.5 39.4 L784.5 33.9 L776.1 39.4 L766.2 38.1 L754.3 35.7 L748.4 39.2 L739.5 40.3 L729.1 38.2 L721.6 41.8 L711.3 37.6 L702.5 39.2 L694.4 39.4 L687.9 37.5 L680.3 38.6 L671.2 42.0 L664.0 35.5 L655.0 32.1 L644.4 30.3 L637.7 24.0 L625.9 21.1 L616.7 27.8 L604.2 28.9 L597.1 31.7 L588.5 32.9 L580.4 28.2 L574.0 24.9 L566.2 25.6 L557.3 25.7 L546.6 27.7 L539.5 24.8 L529.1 21.0 L523.5 23.0 L513.5 21.9 L504.0 22.1 L494.2 22.0 L483.4 22.0 L474.5 18.8 L467.1 19.3 L456.4 17.0 L445.9 19.5 L438.6 21.8 L432.9 21.0 L423.3 18.8 L415.5 22.5 L407.1 26.0 L400.8 27.8 L394.3 32.8 L387.0 35.2 L375.4 33.0 L365.6 30.6 L359.7 34.5 L347.2 36.7 L340.4 38.3 L330.2 41.8 L318.9 35.1 L311.0 39.0 L301.3 38.6 L291.0 39.4 L284.1 35.8 L276.0 38.4 L265.5 35.6 L254.9 32.1 L243.0 32.4 L236.7 30.1 L231.3 20.7 L222.1 21.7 L215.5 22.1 L209.2 22.5 L196.9 21.3 L184.6 23.7 L178.4 22.4 L168.6 15.8 L159.0 16.2 L147.5 14.3 L138.3 13.4 L127.2 11.5 L116.9 17.1 L105.3 11.3 L93.5 12.3 L81.4 7.7 L73.2 15.0 L63.5 16.1 L54.5 12.1 L43.1 17.8 L34.6 20.2 L23.1 17.5 L17.5 18.9 L6.4 20.4 L0 20.9 Z" fill="#232220"/></svg>