<svg xmlns="http://www.w3.org/2000/svg" width="1440" height="52" viewBox="0 0 1440 52" preserveAspectRatio="none"><path d="M0 0 L1440 0 L1440 24.3 L1434.3 24.3 L1426.8 18.3 L1421.2 17.4 L1415.0 18.2 L1403.6 19.4 L1392.4 28.0 L1385.1 23.1 L1379.2 25.5 L1372.8 21.4 L1362.7 24.2 L1356.4 24.2 L1350.7 21.1 L1339.7 19.9 L1328.9 26.6 L1317.6 23.0 L1306.2 24.9 L1297.9 23.6 L1288.3 17.6 L1278.1 17.5 L1272.5 18.7 L1264.8 22.2 L1254.0 23.6 L1245.4 22.8 L1235.1 24.6 L1229.4 20.9 L1218.1 21.5 L1211.3 23.3 L1199.9 15.7 L1194.3 18.8 L1183.5 13.8 L1171.4 13.8 L1165.9 15.0 L1160.2 17.7 L1153.7 21.2 L1146.1 20.8 L1137.4 19.8 L1131.3 21.0 L1123.8 18.7 L1114.3 17.6 L1105.2 19.1 L1093.8 23.9 L1087.0 23.8 L1078.9 21.0 L1068.0 23.2 L1062.0 25.2 L1053.5 24.4 L1045.9 33.4 L1037.2 27.0 L1029.9 30.0 L1024.5 30.4 L1016.1 28.4 L1009.6 24.6 L1001.6 25.8 L991.7 21.5 L983.8 28.9 L978.0 27.9 L968.9 31.0 L956.8 29.9 L950.4 27.7 L941.5 25.7 L930.0 19.9 L920.6 21.8 L915.1 21.4 L904.8 27.1 L895.9 29.7 L887.2 28.2 L879.7 26.2 L867.4 27.6 L856.5 21.9 L846.9 28.0 L839.1 23.8 L830.7 27.7 L823.9 26.0 L815.6 33.2 L808.8 33.8 L799.7 32.3 L788.5 32.8 L781.2 34.8 L772.1 30.3 L759.6 34.9 L749.9 33.3 L739.5 31.3 L729.6 32.7 L723.4 29.1 L717.9 23.2 L708.6 32.8 L700.8 35.7 L689.5 33.4 L683.9 27.9 L675.9 26.4 L668.7 20.6 L662.8 26.3 L651.6 21.9 L641.4 18.8 L631.3 16.1 L625.9 16.5 L614.2 17.8 L604.0 17.3 L596.4 18.3 L587.9 19.2 L582.2 17.1 L576.5 18.1 L567.7 20.8 L560.3 23.4 L552.1 22.0 L541.8 20.2 L530.0 18.4 L523.3 22.7 L515.0 17.5 L507.6 20.7 L495.9 21.8 L489.3 22.4 L479.9 14.0 L473.6 20.7 L462.3 24.4 L452.7 24.1 L442.4 24.2 L436.0 18.3 L427.0 17.5 L421.5 19.8 L414.6 25.4 L409.2 28.3 L402.2 24.8 L391.4 26.2 L380.2 25.6 L368.3 17.9 L359.3 15.5 L350.1 18.9 L342.9 23.4 L334.5 22.8 L325.1 29.3 L313.8 30.7 L302.8 35.0 L290.8 37.4 L284.9 38.0 L277.7 30.3 L268.4 28.2 L260.9 30.5 L251.2 32.4 L245.3 28.6 L237.9 27.8 L231.1 23.4 L223.8 17.9 L213.7 21.7 L202.3 22.7 L196.0 25.6 L187.5 26.4 L176.1 27.1 L169.2 30.8 L159.9 28.0 L154.4 23.0 L148.7 29.9 L140.8 26.0 L132.1 20.6 L122.5 22.6 L114.7 19.6 L104.2 13.7 L92.9 17.5 L85.7 15.1 L73.7 17.7 L68.1 21.7 L61.9 20.5 L56.0 19.2 L44.5 17.9 L34.1 21.5 L23.7 26.1 L17.2 20.1 L11.6 25.0 L0 29.9 Z" fill="rgba(20,16,8,0.16)"/><path d="M0 0 L1440 0 L1440 21.0 L1434.3 21.0 L1426.8 15.0 L1421.2 14.1 L1415.0 14.9 L1403.6 16.1 L1392.4 24.7 L1385.1 19.8 L1379.2 22.2 L1372.8 18.1 L1362.7 20.9 L1356.4 20.9 L1350.7 17.8 L1339.7 16.6 L1328.9 23.3 L1317.6 19.7 L1306.2 21.6 L1297.9 20.3 L1288.3 14.3 L1278.1 14.2 L1272.5 15.4 L1264.8 18.9 L1254.0 20.3 L1245.4 19.5 L1235.1 21.3 L1229.4 17.6 L1218.1 18.2 L1211.3 20.0 L1199.9 12.4 L1194.3 15.5 L1183.5 10.5 L1171.4 10.5 L1165.9 11.7 L1160.2 14.4 L1153.7 17.9 L1146.1 17.5 L1137.4 16.5 L1131.3 17.7 L1123.8 15.4 L1114.3 14.3 L1105.2 15.8 L1093.8 20.6 L1087.0 20.5 L1078.9 17.7 L1068.0 19.9 L1062.0 21.9 L1053.5 21.1 L1045.9 30.1 L1037.2 23.7 L1029.9 26.7 L1024.5 27.1 L1016.1 25.1 L1009.6 21.3 L1001.6 22.5 L991.7 18.2 L983.8 25.6 L978.0 24.6 L968.9 27.7 L956.8 26.6 L950.4 24.4 L941.5 22.4 L930.0 16.6 L920.6 18.5 L915.1 18.1 L904.8 23.8 L895.9 26.4 L887.2 24.9 L879.7 22.9 L867.4 24.3 L856.5 18.6 L846.9 24.7 L839.1 20.5 L830.7 24.4 L823.9 22.7 L815.6 29.9 L808.8 30.5 L799.7 29.0 L788.5 29.5 L781.2 31.5 L772.1 27.0 L759.6 31.6 L749.9 30.0 L739.5 28.0 L729.6 29.4 L723.4 25.8 L717.9 19.9 L708.6 29.5 L700.8 32.4 L689.5 30.1 L683.9 24.6 L675.9 23.1 L668.7 17.3 L662.8 23.0 L651.6 18.6 L641.4 15.5 L631.3 12.8 L625.9 13.2 L614.2 14.5 L604.0 14.0 L596.4 15.0 L587.9 15.9 L582.2 13.8 L576.5 14.8 L567.7 17.5 L560.3 20.1 L552.1 18.7 L541.8 16.9 L530.0 15.1 L523.3 19.4 L515.0 14.2 L507.6 17.4 L495.9 18.5 L489.3 19.1 L479.9 10.7 L473.6 17.4 L462.3 21.1 L452.7 20.8 L442.4 20.9 L436.0 15.0 L427.0 14.2 L421.5 16.5 L414.6 22.1 L409.2 25.0 L402.2 21.5 L391.4 22.9 L380.2 22.3 L368.3 14.6 L359.3 12.2 L350.1 15.6 L342.9 20.1 L334.5 19.5 L325.1 26.0 L313.8 27.4 L302.8 31.7 L290.8 34.1 L284.9 34.7 L277.7 27.0 L268.4 24.9 L260.9 27.2 L251.2 29.1 L245.3 25.3 L237.9 24.5 L231.1 20.1 L223.8 14.6 L213.7 18.4 L202.3 19.4 L196.0 22.3 L187.5 23.1 L176.1 23.8 L169.2 27.5 L159.9 24.7 L154.4 19.7 L148.7 26.6 L140.8 22.7 L132.1 17.3 L122.5 19.3 L114.7 16.3 L104.2 10.4 L92.9 14.2 L85.7 11.8 L73.7 14.4 L68.1 18.4 L61.9 17.2 L56.0 15.9 L44.5 14.6 L34.1 18.2 L23.7 22.8 L17.2 16.8 L11.6 21.7 L0 26.6 Z" fill="#fffdf6"/><path d="M0 0 L1440 0 L1440 17.8 L1434.3 17.8 L1426.8 11.8 L1421.2 10.9 L1415.0 11.7 L1403.6 12.9 L1392.4 21.5 L1385.1 16.6 L1379.2 19.0 L1372.8 14.9 L1362.7 17.7 L1356.4 17.7 L1350.7 14.6 L1339.7 13.4 L1328.9 20.1 L1317.6 16.5 L1306.2 18.4 L1297.9 17.1 L1288.3 11.1 L1278.1 11.0 L1272.5 12.2 L1264.8 15.7 L1254.0 17.1 L1245.4 16.3 L1235.1 18.1 L1229.4 14.4 L1218.1 15.0 L1211.3 16.8 L1199.9 9.2 L1194.3 12.3 L1183.5 7.3 L1171.4 7.3 L1165.9 8.5 L1160.2 11.2 L1153.7 14.7 L1146.1 14.3 L1137.4 13.3 L1131.3 14.5 L1123.8 12.2 L1114.3 11.1 L1105.2 12.6 L1093.8 17.4 L1087.0 17.3 L1078.9 14.5 L1068.0 16.7 L1062.0 18.7 L1053.5 17.9 L1045.9 26.9 L1037.2 20.5 L1029.9 23.5 L1024.5 23.9 L1016.1 21.9 L1009.6 18.1 L1001.6 19.3 L991.7 15.0 L983.8 22.4 L978.0 21.4 L968.9 24.5 L956.8 23.4 L950.4 21.2 L941.5 19.2 L930.0 13.4 L920.6 15.3 L915.1 14.9 L904.8 20.6 L895.9 23.2 L887.2 21.7 L879.7 19.7 L867.4 21.1 L856.5 15.4 L846.9 21.5 L839.1 17.3 L830.7 21.2 L823.9 19.5 L815.6 26.7 L808.8 27.3 L799.7 25.8 L788.5 26.3 L781.2 28.3 L772.1 23.8 L759.6 28.4 L749.9 26.8 L739.5 24.8 L729.6 26.2 L723.4 22.6 L717.9 16.7 L708.6 26.3 L700.8 29.2 L689.5 26.9 L683.9 21.4 L675.9 19.9 L668.7 14.1 L662.8 19.8 L651.6 15.4 L641.4 12.3 L631.3 9.6 L625.9 10.0 L614.2 11.3 L604.0 10.8 L596.4 11.8 L587.9 12.7 L582.2 10.6 L576.5 11.6 L567.7 14.3 L560.3 16.9 L552.1 15.5 L541.8 13.7 L530.0 11.9 L523.3 16.2 L515.0 11.0 L507.6 14.2 L495.9 15.3 L489.3 15.9 L479.9 7.5 L473.6 14.2 L462.3 17.9 L452.7 17.6 L442.4 17.7 L436.0 11.8 L427.0 11.0 L421.5 13.3 L414.6 18.9 L409.2 21.8 L402.2 18.3 L391.4 19.7 L380.2 19.1 L368.3 11.4 L359.3 9.0 L350.1 12.4 L342.9 16.9 L334.5 16.3 L325.1 22.8 L313.8 24.2 L302.8 28.5 L290.8 30.9 L284.9 31.5 L277.7 23.8 L268.4 21.7 L260.9 24.0 L251.2 25.9 L245.3 22.1 L237.9 21.3 L231.1 16.9 L223.8 11.4 L213.7 15.2 L202.3 16.2 L196.0 19.1 L187.5 19.9 L176.1 20.6 L169.2 24.3 L159.9 21.5 L154.4 16.5 L148.7 23.4 L140.8 19.5 L132.1 14.1 L122.5 16.1 L114.7 13.1 L104.2 7.2 L92.9 11.0 L85.7 8.6 L73.7 11.2 L68.1 15.2 L61.9 14.0 L56.0 12.7 L44.5 11.4 L34.1 15.0 L23.7 19.6 L17.2 13.6 L11.6 18.5 L0 23.4 Z" fill="#0c0b0a"/></svg>