<svg xmlns="http://www.w3.org/2000/svg" width="1440" height="52" viewBox="0 0 1440 52" preserveAspectRatio="none"><path d="M0 0 L1440 0 L1440 38.0 L1439.5 38.0 L1428.7 38.0 L1416.8 41.0 L1410.0 39.3 L1400.8 35.0 L1389.8 35.1 L1380.3 30.6 L1371.2 30.9 L1365.7 32.1 L1359.1 35.8 L1349.7 38.8 L1341.0 36.4 L1330.1 43.0 L1319.7 45.5 L1313.3 40.6 L1307.5 41.3 L1299.7 40.5 L1289.6 42.1 L1283.5 38.6 L1277.2 35.4 L1267.2 39.1 L1255.3 45.0 L1245.0 45.2 L1232.9 46.3 L1225.4 48.5 L1213.4 46.9 L1203.5 44.6 L1191.3 43.7 L1183.0 46.0 L1170.7 49.3 L1158.6 46.1 L1146.5 46.0 L1135.3 48.8 L1125.4 43.1 L1115.4 42.5 L1106.8 37.7 L1094.5 41.3 L1086.9 44.0 L1078.1 42.2 L1071.7 39.9 L1065.1 44.4 L1058.5 41.7 L1051.4 38.4 L1042.5 38.4 L1033.5 32.4 L1022.6 32.8 L1013.6 33.2 L1004.5 36.7 L992.5 36.1 L984.9 33.6 L978.1 34.9 L969.6 36.3 L959.5 37.6 L952.5 32.5 L944.6 37.8 L937.2 36.6 L930.8 33.1 L920.7 26.9 L914.0 30.0 L901.7 32.5 L893.0 28.1 L881.6 28.7 L870.2 27.2 L860.2 32.4 L851.2 34.8 L842.8 27.8 L837.4 31.7 L831.9 33.6 L822.6 30.8 L816.7 35.7 L810.4 30.3 L797.9 37.3 L788.1 32.5 L775.9 35.0 L764.4 36.6 L757.0 40.8 L748.9 34.9 L742.3 35.5 L732.4 37.2 L721.6 39.9 L710.4 38.4 L701.0 42.4 L693.5 35.0 L685.6 38.5 L674.8 37.8 L669.2 31.2 L657.5 32.3 L647.1 34.5 L634.6 31.2 L622.4 39.1 L615.7 36.2 L603.8 34.2 L592.3 38.5 L582.1 39.9 L575.0 41.3 L563.1 46.4 L555.8 41.1 L547.2 39.0 L541.5 42.8 L535.2 37.5 L523.1 42.0 L513.7 40.9 L503.4 44.0 L493.3 46.7 L480.8 43.6 L470.6 41.6 L461.1 43.8 L451.4 42.8 L443.1 37.8 L433.7 38.1 L425.7 36.1 L417.5 36.0 L408.8 34.9 L403.0 28.7 L391.8 28.9 L381.7 22.5 L376.0 20.5 L364.0 22.0 L353.9 26.4 L342.3 23.1 L331.8 21.0 L319.5 20.2 L311.5 16.7 L300.1 17.0 L288.3 19.7 L280.0 18.9 L271.8 18.6 L261.0 17.7 L251.2 18.3 L245.4 24.7 L235.6 17.3 L223.2 13.6 L214.2 17.7 L204.2 19.3 L195.6 16.3 L186.1 19.6 L173.9 19.9 L167.2 20.2 L158.0 24.4 L152.4 20.7 L144.2 14.0 L137.8 18.8 L130.3 18.3 L124.8 18.3 L112.8 21.4 L103.1 23.9 L92.5 22.4 L81.7 20.9 L74.0 21.2 L67.9 26.3 L60.7 19.0 L50.3 16.5 L39.7 23.1 L29.0 25.5 L19.1 24.3 L11.5 22.6 L6.0 24.3 L0 28.3 Z" fill="rgba(20,16,8,0.16)"/><path d="M0 0 L1440 0 L1440 34.7 L1439.5 34.7 L1428.7 34.7 L1416.8 37.7 L1410.0 36.0 L1400.8 31.7 L1389.8 31.8 L1380.3 27.3 L1371.2 27.6 L1365.7 28.8 L1359.1 32.5 L1349.7 35.5 L1341.0 33.1 L1330.1 39.7 L1319.7 42.2 L1313.3 37.3 L1307.5 38.0 L1299.7 37.2 L1289.6 38.8 L1283.5 35.3 L1277.2 32.1 L1267.2 35.8 L1255.3 41.7 L1245.0 41.9 L1232.9 43.0 L1225.4 45.2 L1213.4 43.6 L1203.5 41.3 L1191.3 40.4 L1183.0 42.7 L1170.7 46.0 L1158.6 42.8 L1146.5 42.7 L1135.3 45.5 L1125.4 39.8 L1115.4 39.2 L1106.8 34.4 L1094.5 38.0 L1086.9 40.7 L1078.1 38.9 L1071.7 36.6 L1065.1 41.1 L1058.5 38.4 L1051.4 35.1 L1042.5 35.1 L1033.5 29.1 L1022.6 29.5 L1013.6 29.9 L1004.5 33.4 L992.5 32.8 L984.9 30.3 L978.1 31.6 L969.6 33.0 L959.5 34.3 L952.5 29.2 L944.6 34.5 L937.2 33.3 L930.8 29.8 L920.7 23.6 L914.0 26.7 L901.7 29.2 L893.0 24.8 L881.6 25.4 L870.2 23.9 L860.2 29.1 L851.2 31.5 L842.8 24.5 L837.4 28.4 L831.9 30.3 L822.6 27.5 L816.7 32.4 L810.4 27.0 L797.9 34.0 L788.1 29.2 L775.9 31.7 L764.4 33.3 L757.0 37.5 L748.9 31.6 L742.3 32.2 L732.4 33.9 L721.6 36.6 L710.4 35.1 L701.0 39.1 L693.5 31.7 L685.6 35.2 L674.8 34.5 L669.2 27.9 L657.5 29.0 L647.1 31.2 L634.6 27.9 L622.4 35.8 L615.7 32.9 L603.8 30.9 L592.3 35.2 L582.1 36.6 L575.0 38.0 L563.1 43.1 L555.8 37.8 L547.2 35.7 L541.5 39.5 L535.2 34.2 L523.1 38.7 L513.7 37.6 L503.4 40.7 L493.3 43.4 L480.8 40.3 L470.6 38.3 L461.1 40.5 L451.4 39.5 L443.1 34.5 L433.7 34.8 L425.7 32.8 L417.5 32.7 L408.8 31.6 L403.0 25.4 L391.8 25.6 L381.7 19.2 L376.0 17.2 L364.0 18.7 L353.9 23.1 L342.3 19.8 L331.8 17.7 L319.5 16.9 L311.5 13.4 L300.1 13.7 L288.3 16.4 L280.0 15.6 L271.8 15.3 L261.0 14.4 L251.2 15.0 L245.4 21.4 L235.6 14.0 L223.2 10.3 L214.2 14.4 L204.2 16.0 L195.6 13.0 L186.1 16.3 L173.9 16.6 L167.2 16.9 L158.0 21.1 L152.4 17.4 L144.2 10.7 L137.8 15.5 L130.3 15.0 L124.8 15.0 L112.8 18.1 L103.1 20.6 L92.5 19.1 L81.7 17.6 L74.0 17.9 L67.9 23.0 L60.7 15.7 L50.3 13.2 L39.7 19.8 L29.0 22.2 L19.1 21.0 L11.5 19.3 L6.0 21.0 L0 25.0 Z" fill="#fffdf6"/><path d="M0 0 L1440 0 L1440 31.5 L1439.5 31.5 L1428.7 31.5 L1416.8 34.5 L1410.0 32.8 L1400.8 28.5 L1389.8 28.6 L1380.3 24.1 L1371.2 24.4 L1365.7 25.6 L1359.1 29.3 L1349.7 32.3 L1341.0 29.9 L1330.1 36.5 L1319.7 39.0 L1313.3 34.1 L1307.5 34.8 L1299.7 34.0 L1289.6 35.6 L1283.5 32.1 L1277.2 28.9 L1267.2 32.6 L1255.3 38.5 L1245.0 38.7 L1232.9 39.8 L1225.4 42.0 L1213.4 40.4 L1203.5 38.1 L1191.3 37.2 L1183.0 39.5 L1170.7 42.8 L1158.6 39.6 L1146.5 39.5 L1135.3 42.3 L1125.4 36.6 L1115.4 36.0 L1106.8 31.2 L1094.5 34.8 L1086.9 37.5 L1078.1 35.7 L1071.7 33.4 L1065.1 37.9 L1058.5 35.2 L1051.4 31.9 L1042.5 31.9 L1033.5 25.9 L1022.6 26.3 L1013.6 26.7 L1004.5 30.2 L992.5 29.6 L984.9 27.1 L978.1 28.4 L969.6 29.8 L959.5 31.1 L952.5 26.0 L944.6 31.3 L937.2 30.1 L930.8 26.6 L920.7 20.4 L914.0 23.5 L901.7 26.0 L893.0 21.6 L881.6 22.2 L870.2 20.7 L860.2 25.9 L851.2 28.3 L842.8 21.3 L837.4 25.2 L831.9 27.1 L822.6 24.3 L816.7 29.2 L810.4 23.8 L797.9 30.8 L788.1 26.0 L775.9 28.5 L764.4 30.1 L757.0 34.3 L748.9 28.4 L742.3 29.0 L732.4 30.7 L721.6 33.4 L710.4 31.9 L701.0 35.9 L693.5 28.5 L685.6 32.0 L674.8 31.3 L669.2 24.7 L657.5 25.8 L647.1 28.0 L634.6 24.7 L622.4 32.6 L615.7 29.7 L603.8 27.7 L592.3 32.0 L582.1 33.4 L575.0 34.8 L563.1 39.9 L555.8 34.6 L547.2 32.5 L541.5 36.3 L535.2 31.0 L523.1 35.5 L513.7 34.4 L503.4 37.5 L493.3 40.2 L480.8 37.1 L470.6 35.1 L461.1 37.3 L451.4 36.3 L443.1 31.3 L433.7 31.6 L425.7 29.6 L417.5 29.5 L408.8 28.4 L403.0 22.2 L391.8 22.4 L381.7 16.0 L376.0 14.0 L364.0 15.5 L353.9 19.9 L342.3 16.6 L331.8 14.5 L319.5 13.7 L311.5 10.2 L300.1 10.5 L288.3 13.2 L280.0 12.4 L271.8 12.1 L261.0 11.2 L251.2 11.8 L245.4 18.2 L235.6 10.8 L223.2 7.1 L214.2 11.2 L204.2 12.8 L195.6 9.8 L186.1 13.1 L173.9 13.4 L167.2 13.7 L158.0 17.9 L152.4 14.2 L144.2 7.5 L137.8 12.3 L130.3 11.8 L124.8 11.8 L112.8 14.9 L103.1 17.4 L92.5 15.9 L81.7 14.4 L74.0 14.7 L67.9 19.8 L60.7 12.5 L50.3 10.0 L39.7 16.6 L29.0 19.0 L19.1 17.8 L11.5 16.1 L6.0 17.8 L0 21.8 Z" fill="#4884ea"/></svg>