<svg xmlns="http://www.w3.org/2000/svg" width="1440" height="52" viewBox="0 0 1440 52" preserveAspectRatio="none"><path d="M0 0 L1440 0 L1440 44.4 L1438.4 44.4 L1428.8 42.9 L1421.9 40.7 L1413.6 38.2 L1403.2 37.3 L1393.9 41.2 L1386.4 41.9 L1376.5 46.6 L1366.5 42.7 L1357.7 48.0 L1348.4 45.3 L1337.8 43.9 L1325.6 40.2 L1315.4 36.9 L1303.8 34.0 L1294.7 42.4 L1286.3 40.3 L1275.4 37.2 L1268.3 38.7 L1261.5 37.6 L1255.6 39.8 L1248.4 35.0 L1241.4 41.7 L1230.1 37.4 L1221.0 34.6 L1209.9 42.6 L1202.9 40.1 L1192.8 41.3 L1185.3 38.4 L1177.8 41.7 L1167.5 39.9 L1161.2 36.7 L1152.8 37.7 L1142.3 42.8 L1134.5 43.5 L1126.5 47.5 L1115.9 45.4 L1110.5 42.5 L1100.9 42.8 L1091.1 42.3 L1082.6 38.9 L1070.3 41.5 L1064.1 41.7 L1051.6 38.1 L1044.2 40.2 L1036.4 32.1 L1029.4 40.2 L1020.7 42.2 L1009.1 45.1 L998.0 45.1 L986.4 47.9 L978.6 43.5 L966.9 48.4 L955.2 45.9 L945.4 45.9 L934.3 41.8 L927.4 48.9 L916.3 47.1 L910.0 44.4 L898.6 46.0 L886.8 39.4 L878.3 46.8 L871.0 47.3 L865.6 44.2 L859.6 48.3 L850.6 41.0 L843.8 42.5 L836.4 40.5 L830.2 41.7 L820.0 38.6 L814.5 37.7 L804.7 33.5 L798.2 28.4 L786.5 28.2 L779.5 25.2 L766.9 22.9 L756.1 26.1 L745.9 28.4 L735.3 29.7 L726.2 27.9 L716.3 28.7 L704.5 28.3 L694.2 33.6 L688.3 38.7 L676.7 39.2 L670.9 39.8 L661.3 40.8 L654.8 41.2 L642.3 42.1 L633.6 41.8 L621.1 41.5 L612.8 44.6 L606.2 48.6 L593.8 45.1 L588.1 38.7 L579.5 37.6 L572.1 36.9 L565.3 36.3 L557.5 33.9 L545.0 39.2 L536.2 35.6 L530.1 34.9 L519.1 33.7 L506.9 31.0 L496.7 34.3 L485.1 42.3 L475.2 39.8 L468.1 45.5 L461.1 44.2 L452.5 47.4 L444.9 44.7 L435.6 44.1 L423.9 45.1 L415.1 44.3 L404.2 43.8 L398.2 49.2 L392.4 44.0 L380.7 44.6 L372.9 43.5 L361.9 46.7 L355.4 46.5 L347.9 46.8 L341.2 40.7 L329.5 45.7 L321.0 41.0 L313.6 42.3 L303.1 37.4 L290.7 37.2 L282.5 29.7 L271.4 33.8 L265.7 34.3 L253.1 35.0 L241.2 38.1 L231.8 38.3 L223.1 44.5 L213.0 41.8 L200.8 37.7 L193.1 38.8 L182.1 46.2 L172.7 43.3 L164.6 35.8 L157.9 36.4 L145.8 32.9 L137.7 36.2 L130.3 33.4 L124.4 37.0 L118.6 42.0 L107.0 40.8 L97.6 36.3 L88.4 34.0 L78.6 31.8 L72.6 32.5 L66.1 28.3 L54.9 24.4 L45.2 22.8 L35.1 22.3 L26.1 26.8 L17.7 30.4 L7.4 30.6 L0 29.0 Z" fill="rgba(20,16,8,0.16)"/><path d="M0 0 L1440 0 L1440 41.1 L1438.4 41.1 L1428.8 39.6 L1421.9 37.4 L1413.6 34.9 L1403.2 34.0 L1393.9 37.9 L1386.4 38.6 L1376.5 43.3 L1366.5 39.4 L1357.7 44.7 L1348.4 42.0 L1337.8 40.6 L1325.6 36.9 L1315.4 33.6 L1303.8 30.7 L1294.7 39.1 L1286.3 37.0 L1275.4 33.9 L1268.3 35.4 L1261.5 34.3 L1255.6 36.5 L1248.4 31.7 L1241.4 38.4 L1230.1 34.1 L1221.0 31.3 L1209.9 39.3 L1202.9 36.8 L1192.8 38.0 L1185.3 35.1 L1177.8 38.4 L1167.5 36.6 L1161.2 33.4 L1152.8 34.4 L1142.3 39.5 L1134.5 40.2 L1126.5 44.2 L1115.9 42.1 L1110.5 39.2 L1100.9 39.5 L1091.1 39.0 L1082.6 35.6 L1070.3 38.2 L1064.1 38.4 L1051.6 34.8 L1044.2 36.9 L1036.4 28.8 L1029.4 36.9 L1020.7 38.9 L1009.1 41.8 L998.0 41.8 L986.4 44.6 L978.6 40.2 L966.9 45.1 L955.2 42.6 L945.4 42.6 L934.3 38.5 L927.4 45.6 L916.3 43.8 L910.0 41.1 L898.6 42.7 L886.8 36.1 L878.3 43.5 L871.0 44.0 L865.6 40.9 L859.6 45.0 L850.6 37.7 L843.8 39.2 L836.4 37.2 L830.2 38.4 L820.0 35.3 L814.5 34.4 L804.7 30.2 L798.2 25.1 L786.5 24.9 L779.5 21.9 L766.9 19.6 L756.1 22.8 L745.9 25.1 L735.3 26.4 L726.2 24.6 L716.3 25.4 L704.5 25.0 L694.2 30.3 L688.3 35.4 L676.7 35.9 L670.9 36.5 L661.3 37.5 L654.8 37.9 L642.3 38.8 L633.6 38.5 L621.1 38.2 L612.8 41.3 L606.2 45.3 L593.8 41.8 L588.1 35.4 L579.5 34.3 L572.1 33.6 L565.3 33.0 L557.5 30.6 L545.0 35.9 L536.2 32.3 L530.1 31.6 L519.1 30.4 L506.9 27.7 L496.7 31.0 L485.1 39.0 L475.2 36.5 L468.1 42.2 L461.1 40.9 L452.5 44.1 L444.9 41.4 L435.6 40.8 L423.9 41.8 L415.1 41.0 L404.2 40.5 L398.2 45.9 L392.4 40.7 L380.7 41.3 L372.9 40.2 L361.9 43.4 L355.4 43.2 L347.9 43.5 L341.2 37.4 L329.5 42.4 L321.0 37.7 L313.6 39.0 L303.1 34.1 L290.7 33.9 L282.5 26.4 L271.4 30.5 L265.7 31.0 L253.1 31.7 L241.2 34.8 L231.8 35.0 L223.1 41.2 L213.0 38.5 L200.8 34.4 L193.1 35.5 L182.1 42.9 L172.7 40.0 L164.6 32.5 L157.9 33.1 L145.8 29.6 L137.7 32.9 L130.3 30.1 L124.4 33.7 L118.6 38.7 L107.0 37.5 L97.6 33.0 L88.4 30.7 L78.6 28.5 L72.6 29.2 L66.1 25.0 L54.9 21.1 L45.2 19.5 L35.1 19.0 L26.1 23.5 L17.7 27.1 L7.4 27.3 L0 25.7 Z" fill="#fffdf6"/><path d="M0 0 L1440 0 L1440 37.9 L1438.4 37.9 L1428.8 36.4 L1421.9 34.2 L1413.6 31.7 L1403.2 30.8 L1393.9 34.7 L1386.4 35.4 L1376.5 40.1 L1366.5 36.2 L1357.7 41.5 L1348.4 38.8 L1337.8 37.4 L1325.6 33.7 L1315.4 30.4 L1303.8 27.5 L1294.7 35.9 L1286.3 33.8 L1275.4 30.7 L1268.3 32.2 L1261.5 31.1 L1255.6 33.3 L1248.4 28.5 L1241.4 35.2 L1230.1 30.9 L1221.0 28.1 L1209.9 36.1 L1202.9 33.6 L1192.8 34.8 L1185.3 31.9 L1177.8 35.2 L1167.5 33.4 L1161.2 30.2 L1152.8 31.2 L1142.3 36.3 L1134.5 37.0 L1126.5 41.0 L1115.9 38.9 L1110.5 36.0 L1100.9 36.3 L1091.1 35.8 L1082.6 32.4 L1070.3 35.0 L1064.1 35.2 L1051.6 31.6 L1044.2 33.7 L1036.4 25.6 L1029.4 33.7 L1020.7 35.7 L1009.1 38.6 L998.0 38.6 L986.4 41.4 L978.6 37.0 L966.9 41.9 L955.2 39.4 L945.4 39.4 L934.3 35.3 L927.4 42.4 L916.3 40.6 L910.0 37.9 L898.6 39.5 L886.8 32.9 L878.3 40.3 L871.0 40.8 L865.6 37.7 L859.6 41.8 L850.6 34.5 L843.8 36.0 L836.4 34.0 L830.2 35.2 L820.0 32.1 L814.5 31.2 L804.7 27.0 L798.2 21.9 L786.5 21.7 L779.5 18.7 L766.9 16.4 L756.1 19.6 L745.9 21.9 L735.3 23.2 L726.2 21.4 L716.3 22.2 L704.5 21.8 L694.2 27.1 L688.3 32.2 L676.7 32.7 L670.9 33.3 L661.3 34.3 L654.8 34.7 L642.3 35.6 L633.6 35.3 L621.1 35.0 L612.8 38.1 L606.2 42.1 L593.8 38.6 L588.1 32.2 L579.5 31.1 L572.1 30.4 L565.3 29.8 L557.5 27.4 L545.0 32.7 L536.2 29.1 L530.1 28.4 L519.1 27.2 L506.9 24.5 L496.7 27.8 L485.1 35.8 L475.2 33.3 L468.1 39.0 L461.1 37.7 L452.5 40.9 L444.9 38.2 L435.6 37.6 L423.9 38.6 L415.1 37.8 L404.2 37.3 L398.2 42.7 L392.4 37.5 L380.7 38.1 L372.9 37.0 L361.9 40.2 L355.4 40.0 L347.9 40.3 L341.2 34.2 L329.5 39.2 L321.0 34.5 L313.6 35.8 L303.1 30.9 L290.7 30.7 L282.5 23.2 L271.4 27.3 L265.7 27.8 L253.1 28.5 L241.2 31.6 L231.8 31.8 L223.1 38.0 L213.0 35.3 L200.8 31.2 L193.1 32.3 L182.1 39.7 L172.7 36.8 L164.6 29.3 L157.9 29.9 L145.8 26.4 L137.7 29.7 L130.3 26.9 L124.4 30.5 L118.6 35.5 L107.0 34.3 L97.6 29.8 L88.4 27.5 L78.6 25.3 L72.6 26.0 L66.1 21.8 L54.9 17.9 L45.2 16.3 L35.1 15.8 L26.1 20.3 L17.7 23.9 L7.4 24.1 L0 22.5 Z" fill="#f4ecdf"/></svg>