<svg xmlns="http://www.w3.org/2000/svg" fill="none" viewBox="0 0 132 28" height="28" width="132">
<path fill="#f4ecdf" d="M19.364 0.521551V18.1321C19.364 21.2125 18.5655 23.6165 16.9685 25.3604C15.3715 27.1044 13.0078 27.9763 9.8617 27.9763C6.71556 27.9763 4.35195 27.1044 2.75492 25.3604C1.15789 23.6165 0.359375 21.2044 0.359375 18.1321V0.521551H5.33413V18.1321C5.33413 19.7212 5.70144 20.968 6.42809 21.8644C7.15474 22.7608 8.29664 23.2091 9.85372 23.2091C11.4108 23.2091 12.5527 22.7608 13.2793 21.8644C14.006 20.968 14.3734 19.7212 14.3734 18.1321V0.521551H19.3481H19.364ZM42.6407 8.75228C42.6407 7.67659 42.2335 6.73942 41.4191 5.94895C40.6046 5.15847 39.4547 4.75916 37.9694 4.75916C36.7158 4.75916 35.7176 5.01994 34.991 5.54964C34.2644 6.07119 33.897 6.78832 33.897 7.68472C33.897 8.14923 33.9849 8.56487 34.1606 8.93157C34.3362 9.30647 34.6476 9.64056 35.0868 9.93392C35.526 10.2273 36.1009 10.4881 36.8196 10.7244C37.5382 10.9526 38.4486 11.1726 39.5505 11.3764C42.3134 11.8898 44.4214 12.7454 45.8828 13.9515C47.3361 15.1576 48.0707 16.9422 48.0707 19.2974V19.7619C48.0707 21.0169 47.8471 22.1496 47.4079 23.1683C46.9687 24.1869 46.3379 25.0426 45.5074 25.7679C44.677 26.4851 43.6709 27.0392 42.4891 27.4222C41.3073 27.8052 39.9738 28.0008 38.4965 28.0008C36.7637 28.0008 35.2386 27.7482 33.921 27.2511C32.6034 26.754 31.5015 26.0613 30.6231 25.173C29.7447 24.2847 29.082 23.2498 28.6268 22.06C28.1717 20.8702 27.9481 19.5663 27.9481 18.1565V16.9993H32.9229V17.9202C32.9229 19.5337 33.378 20.8213 34.2963 21.7829C35.2145 22.7446 36.6359 23.2253 38.5763 23.2253C40.0855 23.2253 41.2034 22.8912 41.9301 22.223C42.6568 21.5548 43.0241 20.7642 43.0241 19.8352C43.0241 19.4033 42.9522 18.9796 42.8005 18.5884C42.6487 18.1891 42.3853 17.8305 42.0099 17.5127C41.6346 17.1949 41.1156 16.9015 40.4688 16.6489C39.814 16.3963 38.9836 16.1763 37.9854 15.997C36.6519 15.7687 35.4382 15.4673 34.3283 15.0924C33.2263 14.7175 32.26 14.2285 31.4456 13.6092C30.6311 12.9899 29.9923 12.2238 29.5451 11.303C29.09 10.3822 28.8664 9.24939 28.8664 7.92108V7.69286C28.8664 6.59274 29.09 5.57409 29.5292 4.63692C29.9683 3.69976 30.5832 2.88483 31.3738 2.19215C32.1642 1.49946 33.1225 0.961609 34.2404 0.578596C35.3583 0.195582 36.612 0 37.9934 0C39.5505 0 40.9319 0.228179 42.1377 0.676387C43.3434 1.1246 44.3576 1.73579 45.1721 2.50181C45.9866 3.26785 46.6014 4.15612 47.0166 5.15847C47.4319 6.16083 47.6395 7.21208 47.6395 8.31225V9.69764H42.6648V8.77676L42.6407 8.75228ZM75.867 0.521551V18.1321C75.867 21.2125 75.0685 23.6165 73.4715 25.3604C71.8744 27.1044 69.5108 27.9763 66.3646 27.9763C63.2185 27.9763 60.8549 27.1044 59.2579 25.3604C57.6608 23.6165 56.8623 21.2044 56.8623 18.1321V0.521551H61.8371V18.1321C61.8371 19.7212 62.2044 20.968 62.931 21.8644C63.6577 22.7608 64.7996 23.2091 66.3567 23.2091C67.9138 23.2091 69.0556 22.7608 69.7823 21.8644C70.509 20.968 70.8763 19.7212 70.8763 18.1321V0.521551H75.851H75.867ZM99.104 21.677H90.1368L88.8588 27.4466H83.6606L89.9451 0.521551H99.2874L105.579 27.4385H100.381L99.104 21.6689V21.677ZM91.1901 16.8282H98.0101L94.9591 3.06412H94.281L91.1901 16.8282ZM114.427 0.521551H119.402V22.5979H131.388V27.4466H114.427V0.521551Z" clip-rule="evenodd" fill-rule="evenodd"></path>
</svg>
